<?xml version="1.0" standalone="no"?>
<!DOCTYPE svg PUBLIC "-//W3C//DTD SVG 20010904//EN"
 "http://www.w3.org/TR/2001/REC-SVG-20010904/DTD/svg10.dtd">
<svg version="1.0" xmlns="http://www.w3.org/2000/svg"
 width="389.000000pt" height="367.000000pt" viewBox="0 0 389.000000 367.000000"
 preserveAspectRatio="xMidYMid meet">

<g transform="translate(0.000000,367.000000) scale(0.100000,-0.100000)"
fill="#000000" stroke="none">
<path d="M784 3481 c-18 -11 -38 -28 -46 -40 -8 -11 -70 -178 -139 -370 l-124
-351 -127 0 c-117 0 -128 -2 -138 -20 -8 -14 -8 -26 0 -40 11 -20 19 -20 1092
-18 1017 3 1081 4 1092 21 8 12 8 22 0 35 -9 14 -32 18 -139 22 l-128 5 -124
350 c-136 383 -150 409 -225 422 -75 12 -98 -1 -249 -133 -79 -69 -154 -130
-167 -135 -33 -13 -99 -11 -125 2 -12 7 -83 65 -157 129 -74 64 -145 122 -157
128 -33 18 -104 14 -139 -7z"/>
<path d="M2526 3044 c-14 -14 -16 -79 -16 -573 0 -625 0 -628 68 -703 20 -23
60 -52 87 -64 50 -24 50 -24 485 -24 l435 0 50 24 c62 29 97 61 127 117 l23
44 0 589 c0 550 -1 590 -17 600 -13 8 -23 8 -35 0 -17 -10 -18 -53 -23 -585
-6 -646 -3 -624 -83 -677 -33 -22 -53 -27 -128 -30 l-89 -4 -2 642 c-3 600 -4
644 -20 654 -13 8 -23 8 -35 0 -17 -10 -18 -54 -21 -653 l-2 -641 -178 2 -177
3 -3 634 c-1 448 -5 638 -13 648 -16 19 -47 16 -59 -6 -6 -13 -10 -235 -10
-650 l0 -631 -72 1 c-102 1 -155 24 -194 84 -18 28 -19 59 -24 612 -4 504 -7
585 -20 593 -22 14 -36 12 -54 -6z"/>
<path d="M530 2542 c0 -4 9 -37 19 -74 72 -252 253 -441 509 -532 82 -29 95
-31 237 -31 172 0 239 15 380 88 113 58 254 200 312 312 43 85 67 147 78 208
l7 37 -40 0 -40 0 -22 -72 c-93 -310 -394 -518 -715 -495 -213 16 -402 124
-526 300 -48 68 -109 207 -109 247 0 17 -6 20 -45 20 -25 0 -45 -3 -45 -8z"/>
<path d="M1080 1800 c-387 -54 -691 -238 -815 -495 -69 -142 -70 -153 -70
-623 l0 -424 33 -29 32 -29 1513 0 c1449 0 1514 1 1552 19 90 42 115 97 115
260 0 66 -5 132 -11 148 -18 49 -102 123 -139 123 -5 0 -10 -20 -10 -43 0 -36
4 -46 23 -54 41 -19 57 -70 57 -180 0 -104 -15 -149 -58 -172 -18 -10 -20 -6
-24 44 -6 67 -42 125 -95 151 -29 15 -65 20 -155 22 l-118 4 -12 -27 c-20 -44
5 -58 101 -56 133 3 178 -18 196 -91 5 -19 1 -32 -14 -47 -20 -20 -30 -21
-169 -19 l-147 3 -3 193 -2 192 80 0 80 0 0 45 0 45 -289 0 c-256 0 -290 2
-302 17 -10 11 -16 64 -20 187 -5 150 -9 180 -32 244 -102 287 -370 488 -766
573 -109 23 -418 34 -531 19z m-202 -477 l-3 -348 -135 0 -135 0 0 288 0 289
69 36 c63 32 179 80 199 81 4 1 6 -155 5 -346z m940 307 c42 -17 100 -43 127
-58 l50 -27 0 -285 0 -285 -135 0 -135 0 -3 343 c-1 233 1 342 8 342 6 0 45
-14 88 -30z m-178 -633 c0 -51 5 -88 12 -95 8 -8 52 -12 130 -12 l118 0 0
-305 0 -305 -597 2 -598 3 0 300 0 300 123 5 c94 4 125 8 132 20 5 8 10 50 10
93 l0 77 335 0 335 0 0 -83z"/>
<path d="M713 1199 c-33 -12 -56 -53 -48 -88 10 -46 41 -66 97 -62 47 3 75 83
44 124 -18 23 -65 36 -93 26z"/>
<path d="M1843 1202 c-28 -4 -63 -47 -63 -78 0 -65 87 -99 135 -54 57 54 7
145 -72 132z"/>
<path d="M3110 1095 c0 -465 1 -495 18 -495 9 0 27 -3 40 -6 l22 -6 0 501 0
501 -40 0 -40 0 0 -495z"/>
</g>
</svg>
